<svg viewBox="0 0 102 102" xmlns="http://www.w3.org/2000/svg" xmlns:xlink="http://www.w3.org/1999/xlink"><style>:root&gt;svg{display:none}:root&gt;svg:target{display:block}</style><svg fill="none" viewBox="0 0 66 66" id="css--clean" xmlns="http://www.w3.org/2000/svg"><path d="M7.734 0v7.734H5.801v3.868H21.27V7.734h-1.934V3.867h8.867l3.301 3.3 2.734-2.733L29.805 0H7.735zm38.801 52.338a1.934 1.934 0 003.867-.002c-.017-.593-.821-2.277-1.933-4.15-1.114 1.876-1.919 3.56-1.934 4.152z" fill="#008FDD"/><path d="M58.266 31.066V27.2H38.672v3.867h-3.129c-3.32 6.71-4.605 12.782-4.605 17.403 0 4.616 1.281 10.815 4.605 17.531h25.852C64.715 59.29 66 53.09 66 48.469c0-4.616-1.281-10.686-4.606-17.403h-3.128zm-9.797 27.07a5.807 5.807 0 01-5.801-5.8c0-2.472 2.944-7 4.209-8.833l1.592-2.304 1.592 2.304c1.265 1.833 4.209 6.361 4.209 8.833 0 3.199-2.603 5.8-5.801 5.8zm-9.797-46.534h19.594v11.73H38.672v-11.73zm-27.07 33.001a1.935 1.935 0 003.867-.001c-.017-.593-.822-2.278-1.934-4.15-1.114 1.876-1.918 3.56-1.933 4.151zM0 58.137h27.07V66H0v-7.863zm0-42.668h27.07v7.863H0v-7.863z" fill="#008FDD"/><path d="M27.07 27.2H0v27.07h27.07V27.2zM13.535 50.401a5.807 5.807 0 01-5.8-5.8c0-2.472 2.943-7 4.208-8.834l1.592-2.303 1.592 2.303c1.265 1.834 4.209 6.362 4.209 8.834 0 3.198-2.602 5.8-5.8 5.8z" fill="#008FDD"/></svg><svg fill="none" viewBox="0 0 19 38" id="css--facebook" xmlns="http://www.w3.org/2000/svg"><path d="M15.531 6.31H19V.268C18.402.185 16.343 0 13.946 0c-5 0-8.427 3.146-8.427 8.928v5.322H0v6.755h5.52V38h6.766V21.006h5.295l.841-6.754h-6.138V9.598c.002-1.952.527-3.288 3.247-3.288z" fill="#fff"/></svg><svg fill="none" viewBox="0 0 28 30" id="css--google" xmlns="http://www.w3.org/2000/svg"><path d="M24.316 12.28V8.596H21.86v3.684h-3.685v2.457h3.685v3.684h2.456v-3.684H28V12.28h-3.684zm-9.456 4.176l-1.351-.983c-.492-.368-.983-.86-.983-1.719 0-.86.614-1.596 1.228-1.965 1.597-1.228 3.193-2.579 3.193-5.28 0-2.58-1.596-4.053-2.456-4.79h2.088L18.053 0h-7.614C5.035 0 2.333 3.439 2.333 7.123c0 2.824 2.21 5.894 6.14 5.894h.983c-.123.369-.491.983-.491 1.597 0 1.228.491 1.719 1.105 2.456-1.72.122-4.912.49-7.245 1.965C.614 20.385 0 22.227 0 23.578c0 2.825 2.579 5.527 8.105 5.527 6.632 0 9.825-3.685 9.825-7.246 0-2.579-1.351-3.93-3.07-5.403zM5.526 5.28c0-2.702 1.597-3.93 3.316-3.93 3.193 0 4.912 4.298 4.912 6.754 0 3.193-2.579 3.807-3.561 3.807-3.07 0-4.667-3.807-4.667-6.631zm4.421 22.104c-4.052 0-6.631-1.842-6.631-4.544 0-2.701 2.456-3.56 3.193-3.93 1.596-.49 3.684-.613 4.052-.613h.86c2.947 2.087 4.175 2.947 4.175 4.912 0 2.333-2.333 4.175-5.649 4.175z" fill="#fff"/></svg><svg fill="none" viewBox="0 0 102 102" id="css--logo-ico" xmlns="http://www.w3.org/2000/svg"><g clip-path="url(#dclip0)"><path d="M50.58 7.776c-5.956.521-10.484 5.781-9.963 11.739l2.68 30.633-10.135 4.725c-3.394-5.897-10.795-8.318-17.077-5.388-6.634 3.094-9.503 10.978-6.41 17.612 3.093 6.633 10.977 9.504 17.612 6.41a13.249 13.249 0 007.627-11.185l12.413-5.789 1.193 13.642a13.253 13.253 0 00-5.874 12.199c.638 7.292 7.066 12.684 14.357 12.047 7.293-.638 12.686-7.066 12.048-14.357-.604-6.905-6.4-12.103-13.205-12.095l-.975-11.14 27.868-12.995c5.42-2.528 7.711-9.079 5.184-14.498L53.856 45.224 50.58 7.776zM27.676 64.92a6.87 6.87 0 11-11.9-6.871 6.87 6.87 0 0111.9 6.87zm34.113 19.695a6.87 6.87 0 11-11.9-6.871 6.87 6.87 0 0111.9 6.87z" fill="#99BAED"/></g><defs><clipPath id="dclip0"><path fill="#fff" transform="rotate(-60 55.668 32.14)" d="M0 0h74.224v74.224H0z"/></clipPath></defs></svg><svg fill="none" viewBox="0 0 91 53" id="css--logo-text" xmlns="http://www.w3.org/2000/svg"><path d="M4.12 23.48c1.973-.88 3.84-1.32 5.6-1.32 2.293 0 3.467 1.347 3.52 4.04H9c-2.16 0-3.907.533-5.24 1.6-1.307 1.067-1.96 2.573-1.96 4.52 0 1.867.573 3.36 1.72 4.48 1.173 1.12 2.88 1.68 5.12 1.68.96 0 1.92-.227 2.88-.68a9.508 9.508 0 002.56-1.76l.68 1.96h3V25.04c0-1.307-.36-2.48-1.08-3.52-.72-1.067-1.707-1.907-2.96-2.52-1.227-.613-2.587-.92-4.08-.92-.907 0-2.093.173-3.56.52-1.44.347-2.507.747-3.2 1.2l1.24 3.68zm1.6 8.84c0-.88.28-1.613.84-2.2.587-.613 1.373-.92 2.36-.92h4.36v3.48a7.819 7.819 0 01-2.24 1.64c-.827.4-1.653.6-2.48.6-.88 0-1.573-.253-2.08-.76-.507-.533-.76-1.147-.76-1.84zm21.002-6.68a16.93 16.93 0 013.52-2.44c1.28-.667 2.4-1 3.36-1l-.92-3.6c-.934 0-2.027.333-3.28 1-1.227.667-2.32 1.4-3.28 2.2l-1.48-3.2h-2.4V38h4.48V25.64zm18.262-7.56c1.974 0 3.694.427 5.16 1.28 1.467.827 2.587 2.013 3.36 3.56.8 1.547 1.2 3.36 1.2 5.44 0 2-.4 3.773-1.2 5.32a8.673 8.673 0 01-3.44 3.56c-1.466.853-3.186 1.28-5.16 1.28-.72 0-1.533-.16-2.44-.48-.88-.32-1.706-.747-2.48-1.28l-.92 1.24h-2.36V10.2l4.48-.44v9.36c1.307-.693 2.574-1.04 3.8-1.04zm-.08 16.56c1.6 0 2.854-.587 3.76-1.76.934-1.173 1.4-2.68 1.4-4.52 0-1.92-.453-3.467-1.36-4.64-.906-1.2-2.173-1.8-3.8-1.8-.693 0-1.346.107-1.96.32a7.174 7.174 0 00-1.76.96v10.24c1.094.8 2.334 1.2 3.72 1.2zm30.157-6.48c0-2.933-.733-5.347-2.2-7.24-1.466-1.893-3.626-2.84-6.48-2.84-1.946 0-3.64.427-5.08 1.28-1.413.853-2.506 2.053-3.28 3.6-.746 1.52-1.12 3.293-1.12 5.32 0 3.147.92 5.64 2.76 7.48 1.867 1.813 4.56 2.72 8.08 2.72 2.614 0 5-.747 7.16-2.24l-1.36-3.28c-1.146.587-2.133 1.027-2.96 1.32-.8.267-1.72.4-2.76.4-3.733 0-5.8-1.733-6.2-5.2h13.44v-1.32zm-13.36-1.68c.187-1.44.667-2.56 1.44-3.36.8-.8 1.84-1.2 3.12-1.2 1.254 0 2.254.387 3 1.16.747.773 1.24 1.907 1.48 3.4h-9.04zm21.232-.84a16.933 16.933 0 013.52-2.44c1.28-.667 2.4-1 3.36-1l-.92-3.6c-.933 0-2.027.333-3.28 1-1.227.667-2.32 1.4-3.28 2.2l-1.48-3.2h-2.4V38h4.48V25.64z" fill="#99BAED"/></svg><svg fill="none" viewBox="0 0 42 42" id="css--notification" xmlns="http://www.w3.org/2000/svg"><g clip-path="url(#fclip0)"><path d="M34.597 20.38c-1.279-1.493-1.86-2.787-1.86-4.985v-.747c0-2.864-.659-4.71-2.092-6.555C28.436 5.227 24.718 3.5 21.077 3.5h-.154c-3.564 0-7.166 1.648-9.413 4.397-1.512 1.883-2.247 3.807-2.247 6.75v.748c0 2.198-.543 3.492-1.86 4.984-.968 1.1-1.278 2.514-1.278 4.043 0 1.532.503 2.983 1.511 4.162a7.931 7.931 0 005.076 2.473c2.75.313 5.499.431 8.289.431 2.788 0 5.538-.197 8.29-.431a7.93 7.93 0 005.073-2.473c1.007-1.18 1.511-2.63 1.511-4.162 0-1.53-.31-2.943-1.278-4.043z" fill="#99BAED"/><path opacity=".4" d="M24.515 33.65c-.875-.187-6.206-.187-7.08 0-.748.172-1.557.574-1.557 1.456.043.84.536 1.582 1.218 2.053l-.002.002a6.364 6.364 0 003 1.28c.578.08 1.165.077 1.764 0a6.364 6.364 0 002.998-1.28l-.002-.002c.682-.47 1.174-1.213 1.218-2.053 0-.882-.809-1.284-1.557-1.456z" fill="#AEAEAE"/><circle cx="29.569" cy="7.554" r="7.954" transform="rotate(-.887 29.569 7.554)" fill="#FF5050" stroke="#fff"/><path d="M29.375 5.242a3.69 3.69 0 00-1.922.55l.246 1.036c.588-.349 1.109-.527 1.562-.534.334-.005.598.057.793.188a.621.621 0 01.309.555c.003.193-.074.401-.23.624-.157.222-.406.483-.748.781l-1.994 1.751.014.87 4.42-.068-.136-.988-2.53.039.938-.805c.506-.44.86-.82 1.063-1.136.201-.317.299-.695.292-1.135a1.662 1.662 0 00-.264-.896c-.17-.264-.41-.47-.72-.619-.309-.148-.673-.22-1.093-.213z" fill="#fff"/></g><defs><clipPath id="fclip0"><path fill="#fff" d="M0 0h42v42H0z"/></clipPath></defs></svg><svg fill="none" viewBox="0 0 42 42" id="css--profile" xmlns="http://www.w3.org/2000/svg"><path d="M20.994 26.555C13.447 26.555 7 27.745 7 32.505c0 4.762 6.406 5.994 13.994 5.994 7.548 0 13.995-1.188 13.995-5.95 0-4.761-6.405-5.994-13.995-5.994z" fill="#99BAED"/><path opacity=".4" d="M20.994 22.021a9.228 9.228 0 009.261-9.26c0-5.14-4.12-9.261-9.26-9.261a9.23 9.23 0 00-9.262 9.26 9.229 9.229 0 009.261 9.261z" fill="#A4A4A4"/></svg><svg fill="none" viewBox="0 0 97 97" id="css--razor" xmlns="http://www.w3.org/2000/svg"><g clip-path="url(#hclip0)" fill="#008FDD"><path d="M46.106 38.417v-4.58h4.581v4.58h-4.58zm.672 23.624a2.275 2.275 0 00-.671 1.62v8.59c0 .612.238 1.187.67 1.62.433.433 1.008.67 1.62.67.611 0 1.186-.238 1.62-.67.431-.433.67-1.008.67-1.62v-8.59c0-.612-.238-1.188-.67-1.62a2.275 2.275 0 00-1.62-.671c-.612 0-1.187.238-1.62.671z"/><path d="M54.698 40.421a2 2 0 01-.588 1.419 2 2 0 01-1.418.587h-8.59a2.005 2.005 0 01-2.006-2.005v-6.586H30.284v37.341c0 4.84 1.884 9.388 5.305 12.809a17.975 17.975 0 0010.803 5.195v4.777a2.005 2.005 0 104.01 0v-4.777a17.977 17.977 0 0010.803-5.195 17.997 17.997 0 005.305-12.809V33.836H54.698v6.585zm0 23.24v8.59a6.261 6.261 0 01-1.846 4.456 6.259 6.259 0 01-4.455 1.845 6.26 6.26 0 01-4.455-1.846 6.26 6.26 0 01-1.846-4.455v-8.59a6.26 6.26 0 011.846-4.456 6.26 6.26 0 014.455-1.846c1.683 0 3.266.656 4.456 1.846a6.263 6.263 0 011.845 4.455zm9.807-46.722a2.005 2.005 0 00-2.005 2.005v2.29h-2.433v-2.29a2.006 2.006 0 00-4.01 0v2.29h-2.433v-2.29a2.006 2.006 0 10-4.01 0v2.29H47.18v-2.29a2.005 2.005 0 00-4.01 0l-.001 2.29h-2.433v-2.29a2.004 2.004 0 10-4.01 0v2.29h-2.433v-2.29a2.004 2.004 0 10-4.01 0v10.883l36.226-.001V18.944a2.004 2.004 0 00-2.005-2.005z"/></g><defs><clipPath id="hclip0"><path fill="#fff" transform="rotate(-45 58.42 24.198)" d="M0 0h68.444v68.444H0z"/></clipPath></defs></svg><svg fill="none" viewBox="0 0 58 67" id="css--scissors" xmlns="http://www.w3.org/2000/svg"><path d="M10.04.995c-4.307 3.016-5.443 9.013-2.427 13.321l15.51 22.152-5.64 8.054c-5.178-2.999-11.879-1.588-15.375 3.406C-1.583 53.2-.302 60.466 4.97 64.159c5.273 3.691 12.54 2.411 16.232-2.862a11.651 11.651 0 00.89-11.873L29 39.558l6.907 9.865a11.655 11.655 0 00.89 11.873c3.693 5.273 10.96 6.553 16.232 2.862 5.273-3.693 6.554-10.959 2.862-16.231-3.496-4.993-10.196-6.404-15.374-3.405l-5.641-8.055 15.51-22.15c3.016-4.309 1.88-10.306-2.427-13.322L29 28.075 10.04.995zm7.683 53.592a6.042 6.042 0 11-12.084 0 6.042 6.042 0 0112.084 0zm34.639 0a6.042 6.042 0 11-12.084 0 6.042 6.042 0 0112.084 0z" fill="#008FDD"/></svg><svg fill="none" viewBox="0 0 32 26" id="css--twitter" xmlns="http://www.w3.org/2000/svg"><path d="M31.692 3.048c-1.178.517-2.434.86-3.743 1.026a6.46 6.46 0 002.858-3.59 12.985 12.985 0 01-4.12 1.572 6.495 6.495 0 00-11.239 4.443c0 .515.044 1.01.15 1.482-5.401-.264-10.18-2.853-13.391-6.796a6.541 6.541 0 00-.89 3.284 6.507 6.507 0 002.886 5.4 6.416 6.416 0 01-2.935-.801v.071c0 3.158 2.252 5.78 5.205 6.384a6.484 6.484 0 01-1.703.214c-.416 0-.836-.024-1.23-.11.841 2.572 3.23 4.464 6.07 4.525a13.054 13.054 0 01-8.055 2.771c-.533 0-1.044-.023-1.555-.089a18.291 18.291 0 009.967 2.916c11.956 0 18.493-9.904 18.493-18.489 0-.287-.01-.564-.024-.84a12.962 12.962 0 003.256-3.373z" fill="#fff"/></svg></svg>